Coordinates
version=1
nRows=16
nColumns=36
inDegrees=yes

Units are S.I. units (second, meters, Newtons, ...)
If the header above contains a line with 'inDegrees', this indicates whether rotational values are in degrees (yes) or radians (no).

endheader
time	pelvis_tilt	pelvis_list	pelvis_rotation	pelvis_tx	pelvis_ty	pelvis_tz	hip_flexion_r	hip_adduction_r	hip_rotation_r	knee_angle_r	knee_angle_r_beta	ankle_angle_r	subtalar_angle_r	mtp_angle_r	hip_flexion_l	hip_adduction_l	hip_rotation_l	knee_angle_l	knee_angle_l_beta	ankle_angle_l	subtalar_angle_l	mtp_angle_l	lumbar_extension	lumbar_bending	lumbar_rotation	arm_flex_r	arm_add_r	arm_rot_r	elbow_flex_r	pro_sup_r	arm_flex_l	arm_add_l	arm_rot_l	elbow_flex_l	pro_sup_l
      2.88333330	    -31.03521149	     -1.50721830	     -1.78703769	      0.81572525	      0.51691976	     -0.61070039	    109.06551486	     -9.65166844	      5.30606407	    110.98231031	      1.93700673	     33.06469888	      0.66730368	     -7.49999987	    112.77205573	    -12.35106996	     12.01380941	    111.97753991	      1.95437676	     24.94326623	     -1.53930810	     -7.49999987	    -42.62305266	      1.00607662	      6.52359164	     92.33472154	    -17.49493878	     13.31405763	    111.86675095	     93.08621981	     89.48643503	    -17.99580531	     27.38395832	    113.56970357	     92.03822523
      2.90000000	    -31.32893806	     -1.43912998	     -2.15353063	      0.83537971	      0.50951715	     -0.61322033	    110.74747104	    -10.09039435	      5.80733000	    113.35377532	      1.97839660	     33.74827453	      1.64155553	     -7.49999987	    114.43434251	    -12.61868449	     12.84230825	    114.71522600	      2.00215840	     25.89154508	      0.21539108	     -7.49999987	    -43.35820779	      0.83256328	      6.93009379	     90.78926197	    -17.88269836	     13.91626897	    112.67149293	     93.18040796	     87.36061046	    -17.21195564	     27.32573232	    114.13155236	     92.29262618
      2.91666670	    -31.23227204	     -1.21654122	     -2.35389794	      0.83535783	      0.50694874	     -0.62486892	    111.41761956	    -10.95178852	      6.46929556	    114.91143893	      2.00558296	     34.49241819	      2.30971409	     -7.49999987	    115.12293604	    -12.62277654	     12.91577296	    116.94958998	      2.04115540	     26.34543844	      1.03094121	     -7.49999987	    -44.36056284	      1.21278655	      7.51906417	     91.05698087	    -19.17053542	     15.26895399	    111.09631431	     93.61660164	     85.58995108	    -14.82293644	     25.34205707	    113.28376135	     93.15381463
      2.93333330	    -31.31254095	     -1.07409982	     -2.53444685	      0.83437328	      0.50038491	     -0.62577471	    111.81970598	    -11.48831245	      6.97130266	    115.70133925	      2.01936932	     34.61871209	      2.32893143	     -7.49999987	    115.77923887	    -12.51844647	     12.94670772	    118.29513014	      2.06463951	     26.39833355	      1.16295233	     -7.49999987	    -45.28932977	      1.29266964	      7.51999031	     91.48277547	    -18.99870545	     15.23248896	    111.02153126	     93.62204368	     85.06893500	    -14.63780577	     25.60109319	    113.12772143	     93.21871005
      2.95000000	    -31.46745347	     -1.11225823	     -2.51846628	      0.84790018	      0.50267745	     -0.62419665	    111.53063428	    -12.37158059	      7.20380204	    116.21204788	      2.02828287	     35.93484768	      3.70027812	     -7.49999987	    115.79240373	    -12.39757101	     12.94761832	    119.05649050	      2.07792776	     27.74101103	      2.58363145	     -7.49999987	    -45.82479066	      1.76641696	      7.93554663	     91.25107893	    -18.63153597	     15.60651776	    111.78381000	     93.51887630	     82.93502163	    -15.09770250	     25.68423337	    114.08006785	     93.58631933
      2.96666670	    -31.77867045	     -1.16522939	     -2.67384463	      0.85038558	      0.50264429	     -0.62022996	    111.05439482	    -12.70548072	      7.09835606	    116.34365559	      2.03057985	     36.57003916	      4.14948638	     -7.49999987	    115.65889994	    -12.72512084	     13.08967996	    119.25294212	      2.08135648	     28.66131195	      3.16750941	     -7.49999987	    -45.98954285	      2.11526278	      7.54546258	     90.94387710	    -17.59890461	     16.21798867	    111.53402664	     92.35869113	     80.96173615	    -16.23850956	     23.84831653	    116.98129450	     95.62409291
      2.98333330	    -31.65930595	     -1.16673147	     -2.67287590	      0.83676013	      0.50412888	     -0.61283702	    110.37597167	    -12.68214826	      6.68438266	    115.98936463	      2.02439631	     36.65872999	      4.26998642	     -7.49999987	    115.25440679	    -13.03358192	     13.08151607	    118.68262183	      2.07140252	     28.92801159	      3.15165257	     -7.49999987	    -46.20599181	      2.03040903	      7.91469590	     92.81907671	    -17.57125010	     15.88367070	    112.11105314	     92.10552793	     82.82795441	    -16.58274511	     23.02998955	    117.98658038	     95.75758520
      3.00000000	    -31.69642179	     -1.15790159	     -2.79519746	      0.85166552	      0.51942808	     -0.60643824	    108.83898455	    -12.35989027	      5.87816429	    114.86280726	      2.00473417	     37.05818757	      4.57526535	     -7.49999987	    113.82835531	    -13.42867263	     13.11632341	    117.40729801	      2.04914392	     29.74768973	      3.35529265	     -7.49999987	    -45.65446915	      1.56917387	      7.71998910	     91.31864209	    -17.57377705	     16.45441342	    112.17029801	     90.91330065	     82.47038814	    -17.90589801	     22.81443597	    117.56815236	     94.64694803
      3.01666670	    -32.39410901	     -1.12837571	     -2.71222018	      0.84004843	      0.52794393	     -0.62038375	    108.05677998	    -12.63099595	      5.21211857	    112.91149979	      1.97067743	     36.65740065	      4.54858946	     -7.49999987	    112.80973331	    -13.17728635	     12.43130581	    115.54586917	      2.01665585	     29.61917022	      2.86251797	     -7.49999987	    -44.72802222	      1.93322677	      7.29382493	     90.79466653	    -17.94669927	     16.57097716	    111.63979976	     87.19774979	     84.41209646	    -18.83740833	     24.31636592	    117.13905328	     91.09063193
      3.03333330	    -33.28402786	     -1.01907972	     -2.94655605	      0.87223273	      0.54610200	     -0.61053906	    106.18100535	    -12.16554747	      4.63490675	    110.82614699	      1.93428116	     37.20443671	      4.81789018	     -7.49999987	    110.66995904	    -13.50487963	     12.03787536	    113.47636772	      1.98053624	     30.58557879	      3.53970692	     -7.49999987	    -43.43031717	      1.57717171	      6.53252431	     88.24823781	    -17.01151376	     15.81248735	    116.71261154	     83.19526961	     82.65547993	    -21.25280597	     23.99934566	    121.04036994	     89.82416548
      3.05000000	    -33.43313737	     -0.92273329	     -3.12910498	      0.87681650	      0.55130443	     -0.60671634	    103.66839364	    -11.15905551	      4.41664717	    108.85565638	      1.89988961	     37.67922240	      4.11602306	     -7.49999987	    107.69997185	    -13.91871960	     11.51459707	    111.59252513	      1.94765698	     31.81136678	      3.60612200	     -7.49999987	    -41.76660876	      1.15124728	      6.60066832	     87.43880279	    -17.87571734	     15.58635427	    120.77783457	     83.00074999	     83.27711936	    -21.42371606	     22.85675310	    123.43996483	     89.91697318
      3.06666670	    -33.40234977	     -0.96633062	     -3.17809004	      0.87303163	      0.55886889	     -0.60615626	    101.36541443	    -10.15208265	      4.14513130	    106.86912111	      1.86521803	     37.96727842	      3.17841571	     -7.49999987	    105.22320504	    -14.06785409	     10.99690285	    109.86235671	      1.91745985	     32.49686123	      3.08632145	     -7.49999987	    -39.87250833	      0.51789253	      6.96899286	     88.63230522	    -20.32282308	     14.20817648	    124.63696686	     81.42825363	     86.42954543	    -21.81103215	     22.38923143	    123.59976707	     89.93769442
      3.08333330	    -33.22786476	     -0.70915235	     -3.23676291	      0.88022996	      0.57216963	     -0.60853379	     99.01598753	     -9.26076748	      4.01242699	    104.77319441	      1.82863721	     38.01167372	      1.97883421	     -7.49999987	    102.60388249	    -14.05058643	     10.17461148	    108.22434926	      1.88887123	     32.90953869	      2.55679339	     -7.49999987	    -37.78779016	      0.19916059	      6.55913990	     89.64705748	    -20.57194347	     14.22046945	    125.59392945	     81.29208059	     88.00836515	    -22.12063564	     21.53872090	    123.06545834	     89.75450912
      3.10000000	    -33.40918331	     -0.77197280	     -2.87976060	      0.88083654	      0.60704939	     -0.61068401	     95.84542096	     -9.01648517	      3.38931523	    100.69897078	      1.75752859	     37.57255130	      1.29447436	     -7.49999987	     99.49633987	    -13.37083027	      9.04801130	    104.68735311	      1.82713900	     32.16686272	      1.60017281	     -7.49999987	    -36.60382676	      0.37701535	      6.12841711	     90.34864512	    -21.29533788	     13.96677022	    126.30030790	     80.01318781	     89.18360045	    -23.60330935	     22.66150556	    123.47697187	     87.90323693
      3.11666670	    -33.04767178	     -0.69653308	     -2.79863178	      0.89415230	      0.62454873	     -0.60793202	     91.70231142	     -8.42264112	      2.82107837	     96.42635117	      1.68295731	     37.28295044	      0.06741989	     -7.49999987	     95.27661220	    -12.93454233	      8.10508425	    100.79632991	      1.75922783	     31.23781898	      0.56804754	     -7.49999987	    -34.97992683	      0.46638198	      5.49086703	     90.21785181	    -21.29658734	     13.88797434	    129.15713918	     79.72951226	     90.27509149	    -24.76808349	     22.58800815	    125.21545228	     87.26011131
      3.13333330	    -32.23211987	     -0.18271309	     -2.79469241	      0.90750157	      0.64306491	     -0.61337323	     87.43014004	     -8.07793938	      3.02397693	     92.59191289	      1.61603374	     36.65630179	     -0.86491398	     -7.49999987	     90.72046857	    -12.44235410	      6.88746850	     97.16306408	      1.69581538	     29.87811733	     -0.24634498	     -7.49999987	    -33.96794798	      0.44033506	      5.00312189	     92.00873341	    -23.47907003	     13.40697277	    131.76907753	     79.89728447	     90.17058525	    -25.95175907	     21.54262701	    127.65976326	     87.11017354
